<svg width="74" height="31" viewBox="0 0 74 31" fill="none" xmlns="http://www.w3.org/2000/svg">
<path d="M22.7544 10.7892V19.3804H17.728V11.2568C17.7504 10.8499 17.67 10.4439 17.4942 10.0758C17.3368 9.80175 16.9828 9.66255 16.4321 9.66255C16.0443 9.6925 15.6625 9.77595 15.2978 9.9105C14.7843 10.0758 14.3144 10.2498 13.8926 10.4325V19.3804H8.86619V11.2568C8.88855 10.8499 8.80816 10.4439 8.63235 10.0758C8.475 9.80175 8.12096 9.66255 7.57024 9.66255C7.179 9.69321 6.79377 9.77662 6.42509 9.9105C5.95011 10.0636 5.48328 10.2407 5.02643 10.4412V19.3804H0V6.06728H2.97871L3.85287 7.4397C5.80808 6.23185 7.58335 5.62793 9.1787 5.62793C10.9431 5.62793 12.2113 6.17675 12.9835 7.2744C14.8047 6.1782 16.4874 5.62938 18.0318 5.62793C21.1817 5.62793 22.7559 7.34835 22.7544 10.7892Z" fill="#373737"/>
<path d="M31.7738 5.59976C33.1535 5.59976 34.3191 5.91079 35.2705 6.53284C36.216 7.1435 36.9673 8.00959 37.4362 9.02973C37.9321 10.1227 38.1812 11.3106 38.1661 12.5097V13.9648H30.0364C30.209 14.5178 30.5759 14.9903 31.0701 15.2959C31.6774 15.6415 32.3709 15.8082 33.0698 15.7766C34.3486 15.7742 35.6077 15.4629 36.7391 14.8696L38.1443 18.2474C37.418 18.727 36.6101 19.0711 35.76 19.2631C34.7203 19.5371 33.6492 19.6752 32.5737 19.6742C31.1488 19.7016 29.7341 19.4304 28.4214 18.8781C27.2612 18.386 26.276 17.5586 25.5935 16.503C24.8909 15.3711 24.5361 14.0594 24.5729 12.7294C24.5421 11.406 24.8657 10.0984 25.5104 8.94056C26.1124 7.88324 27.0077 7.02091 28.0892 6.45671C29.2274 5.87236 30.4933 5.57793 31.7738 5.59976ZM31.6361 9.60611C31.402 9.60954 31.1713 9.66274 30.9594 9.76214C30.7476 9.86155 30.5596 10.0049 30.4079 10.1825C30.2371 10.3559 30.1037 10.5623 30.0161 10.789C29.9286 11.0157 29.8886 11.2579 29.8987 11.5005H33.3735C33.3721 11.0348 33.2187 10.5822 32.9365 10.2108C32.7877 10.0099 32.5907 9.84939 32.3636 9.74378C32.1365 9.63816 31.8864 9.59083 31.6361 9.60611Z" fill="#373737"/>
<path d="M46.4751 5.60057C47.8548 5.60057 49.0204 5.91159 49.9717 6.53364C50.9167 7.14443 51.6671 8.01055 52.1353 9.03053C52.6329 10.123 52.8829 11.3111 52.8674 12.5105V13.9656H44.7377C44.909 14.5192 45.2763 14.9922 45.7714 15.2967C46.3785 15.6428 47.0721 15.8096 47.771 15.7774C49.0492 15.7752 50.3077 15.464 51.4381 14.8704L52.8455 18.2482C52.1186 18.7281 51.3099 19.0723 50.4591 19.2639C49.4202 19.538 48.3498 19.6762 47.2749 19.675C45.8501 19.7023 44.4354 19.4311 43.1227 18.8789C41.9634 18.386 40.9792 17.5588 40.2969 16.5038C39.6151 15.4526 39.2749 14.1947 39.2764 12.7302C39.2461 11.4092 39.5689 10.104 40.2117 8.94788C40.8137 7.89057 41.709 7.02823 42.7905 6.46404C43.928 5.87717 45.194 5.58047 46.4751 5.60057ZM46.3308 9.60691C46.0967 9.6102 45.8659 9.66334 45.654 9.76275C45.4422 9.86217 45.2542 10.0056 45.1027 10.1833C44.9318 10.3568 44.7983 10.5632 44.7104 10.7898C44.6225 11.0165 44.5819 11.2586 44.5913 11.5013H48.0792C48.0736 11.0397 47.9205 10.5918 47.6421 10.2224C47.4932 10.0183 47.295 9.85487 47.0658 9.74727C46.8366 9.63967 46.5838 9.59139 46.3308 9.60691Z" fill="#373737"/>
<path d="M60.0987 0V19.3792H55.0723V0.302324L60.0987 0Z" fill="#373737"/>
<path d="M62.5812 6.06641H73.2547L73.5038 8.83953L68.0971 15.4559H73.5301L73.9999 19.3709H62.5812L61.9736 16.7913L67.4634 9.98357H63.051L62.5812 6.06641Z" fill="#373737"/>
<path d="M40.028 24.1664C41.8419 24.1838 43.8947 23.83 46.1865 23.105C48.4783 22.38 50.2419 21.5187 51.4774 20.5211L52.7602 26.2305C50.9089 27.6168 48.8537 28.7107 46.6673 29.4734C44.5246 30.2198 42.2674 30.5878 39.9974 30.5609C37.7986 30.5406 35.6204 30.1372 33.5614 29.369C31.3299 28.5134 29.2217 27.3681 27.2915 25.963L28.6574 20.2471C30.0823 21.294 31.8983 22.2031 34.1056 22.9745C36.3129 23.7459 38.287 24.1432 40.028 24.1664Z" fill="#373737"/>
</svg>
